<?xml version="1.0" standalone="no"?>
<!DOCTYPE svg PUBLIC "-//W3C//DTD SVG 20010904//EN"
 "http://www.w3.org/TR/2001/REC-SVG-20010904/DTD/svg10.dtd">
<svg version="1.0" xmlns="http://www.w3.org/2000/svg"
 width="565.000000pt" height="419.000000pt" viewBox="0 0 565.000000 419.000000"
 preserveAspectRatio="xMidYMid meet">

<g transform="translate(0.000000,419.000000) scale(0.100000,-0.100000)"
fill="#000000" stroke="none">
<path d="M2745 4140 c-30 -15 -186 -186 -620 -679 -319 -363 -583 -660 -588
-660 -4 -1 -284 224 -623 500 -339 275 -628 505 -641 510 -45 17 -123 11 -165
-13 -54 -30 -90 -94 -90 -156 1 -67 509 -2937 526 -2970 19 -36 65 -78 99 -91
20 -8 688 -11 2194 -11 l2166 0 43 25 c23 14 52 40 64 60 17 28 70 315 276
1487 141 799 256 1474 256 1500 1 133 -148 225 -265 162 -20 -10 -307 -239
-638 -508 -331 -269 -607 -489 -614 -490 -6 0 -271 294 -589 654 -416 473
-588 661 -618 678 -52 28 -119 29 -173 2z"/>
<path d="M672 349 c-133 -66 -134 -262 -1 -329 38 -20 68 -20 2159 -20 2091 0
2121 0 2159 20 133 68 132 264 -1 329 l-44 21 -2115 0 -2114 0 -43 -21z"/>
</g>
</svg>
