<?xml version="1.0" standalone="no"?>
<!DOCTYPE svg PUBLIC "-//W3C//DTD SVG 20010904//EN"
 "http://www.w3.org/TR/2001/REC-SVG-20010904/DTD/svg10.dtd">
<svg version="1.0" xmlns="http://www.w3.org/2000/svg"
 width="624.000000pt" height="480.000000pt" viewBox="0 0 624.000000 480.000000"
 preserveAspectRatio="xMidYMid meet">

<g transform="translate(0.000000,480.000000) scale(0.100000,-0.100000)"
fill="#000000" stroke="none">
<path d="M3069 4481 c-23 -13 -251 -263 -619 -680 -321 -364 -586 -661 -589
-661 -3 0 -280 223 -616 496 -335 273 -623 503 -639 511 -48 25 -145 14 -191
-21 -39 -30 -74 -94 -75 -136 0 -32 508 -2915 521 -2957 14 -45 45 -81 90
-103 38 -20 68 -20 2203 -20 1505 0 2173 3 2193 11 34 12 80 55 98 90 15 28
525 2920 525 2974 0 66 -41 129 -105 162 -38 20 -122 20 -160 0 -17 -9 -304
-239 -640 -511 -335 -273 -613 -496 -616 -496 -3 0 -264 293 -578 650 -315
358 -589 663 -608 677 -47 36 -141 43 -194 14z m671 -1109 c305 -346 570 -640
588 -652 47 -33 126 -38 178 -12 21 11 255 196 519 411 263 214 481 389 483
387 1 -2 -85 -502 -193 -1110 -107 -609 -195 -1109 -195 -1112 0 -2 -883 -4
-1963 -4 l-1963 0 -196 1112 c-108 612 -196 1114 -194 1115 2 2 224 -176 494
-396 270 -219 505 -404 523 -410 48 -16 98 -13 143 9 31 15 176 172 615 670
515 583 576 649 590 636 9 -8 266 -298 571 -644z"/>
<path d="M1004 691 c-78 -36 -118 -120 -100 -216 8 -43 59 -103 103 -121 27
-12 395 -14 2156 -14 l2123 0 41 27 c55 35 87 94 87 158 0 61 -23 105 -77 149
l-39 31 -2126 2 c-2060 3 -2128 2 -2168 -16z"/>
</g>
</svg>
